<?xml version="1.0"?><svg xmlns="http://www.w3.org/2000/svg" viewBox="0 0 100 100"><path fill="none" stroke="#323232" stroke-width="3" stroke-linecap="round" stroke-linejoin="round" stroke-miterlimit="10" d="M46.141 32.828l17.554 8.758"/><path fill="none" stroke="#323232" stroke-width="3" stroke-linecap="round" stroke-linejoin="round" stroke-miterlimit="10" d="M28.219 45.509l6.961 25.068"/><path fill="none" stroke="#323232" stroke-width="3" stroke-linecap="round" stroke-linejoin="round" stroke-miterlimit="10" d="M45.372 77.524l19.801-18.635"/><g><path d="M42.496 39.045l.036-.524a1.83 1.83 0 0 0-.505-1.198l-4.742-4.972a1.832 1.832 0 0 0-1.327-.568h-2.825a1.293 1.293 0 0 1-1.293-1.293v-2.035a4.802 4.802 0 0 0 2.754-4.341v-4.905a4.763 4.763 0 0 0-4.763-4.763h-3.225a4.763 4.763 0 0 0-4.763 4.763v4.905a4.803 4.803 0 0 0 2.754 4.341v2.035c0 .714-.579 1.293-1.293 1.293h-2.825c-.501 0-.981.205-1.327.568l-4.742 4.972a1.833 1.833 0 0 0-.505 1.198l.036.524" fill="none" stroke="#849b87" stroke-width="3" stroke-linecap="round" stroke-linejoin="round" stroke-miterlimit="10"/><circle cx="28.219" cy="26.505" r="19.005" fill="none" stroke="#000" stroke-width="3" stroke-linecap="round" stroke-linejoin="round" stroke-miterlimit="10"/></g><g><path d="M43.415 88.772l.021-.302a1.057 1.057 0 0 0-.291-.691l-2.735-2.868a1.06 1.06 0 0 0-.765-.328h-1.63a.746.746 0 0 1-.746-.746v-1.174a2.77 2.77 0 0 0 1.588-2.504V77.33a2.747 2.747 0 0 0-2.747-2.747h-1.86a2.747 2.747 0 0 0-2.747 2.747v2.829a2.77 2.77 0 0 0 1.588 2.504v1.174a.746.746 0 0 1-.746.746h-1.63c-.289 0-.566.118-.765.328l-2.735 2.868a1.057 1.057 0 0 0-.291.691l.021.302" fill="none" stroke="#849b87" stroke-width="3" stroke-linecap="round" stroke-linejoin="round" stroke-miterlimit="10"/><circle cx="35.18" cy="81.538" r="10.962" fill="none" stroke="#000" stroke-width="3" stroke-linecap="round" stroke-linejoin="round" stroke-miterlimit="10"/></g><g><path d="M87.147 58.889l.028-.403a1.41 1.41 0 0 0-.389-.922l-3.649-3.827a1.41 1.41 0 0 0-1.021-.437h-2.174a.995.995 0 0 1-.995-.995v-1.566a3.695 3.695 0 0 0 2.119-3.34v-3.775a3.665 3.665 0 0 0-3.665-3.665h-2.482a3.665 3.665 0 0 0-3.665 3.665v3.775c0 1.477.868 2.748 2.119 3.34v1.566c0 .55-.446.995-.995.995h-2.174a1.41 1.41 0 0 0-1.021.437l-3.649 3.827c-.238.25-.376.578-.389.922l.028.403" fill="none" stroke="#849b87" stroke-width="3" stroke-linecap="round" stroke-linejoin="round" stroke-miterlimit="10"/><circle cx="76.16" cy="49.238" r="14.626" fill="none" stroke="#000" stroke-width="3" stroke-linecap="round" stroke-linejoin="round" stroke-miterlimit="10"/></g><metadata xmlns:d="https://loading.io/stock/">
<d:name>network</d:name>
<d:tags>network,relationship,connection,friend,group,team,link,diversity,society,kinship</d:tags>
<d:license>by</d:license>
<d:slug>gwb0xj</d:slug>
</metadata></svg>