<?xml version="1.0"?><svg xmlns="http://www.w3.org/2000/svg" viewBox="0 0 100 100"><path d="M67.117 58.434c0-9.42-7.637-17.057-17.057-17.057s-17.057 7.637-17.057 17.057v4.833l-3.052 5.014a1.003 1.003 0 0 0 .857 1.524h2.195v7.296c0 1.15 1.099 1.98 2.205 1.667l6.039-1.714v6.823h19.615V71.633c3.818-3.128 6.255-7.879 6.255-13.199z" fill="none" stroke="#323232" stroke-width="3" stroke-linecap="round" stroke-linejoin="round" stroke-miterlimit="10"/><g><path fill="none" stroke="#f7b26a" stroke-width="3" stroke-linecap="round" stroke-linejoin="round" stroke-miterlimit="10" d="M50.308 36.141v-7.699"/><circle cx="50.308" cy="21.906" r="5.783" fill="none" stroke="#f7b26a" stroke-width="3" stroke-linecap="round" stroke-linejoin="round" stroke-miterlimit="10"/></g><g><path fill="none" stroke="#f7b26a" stroke-width="3" stroke-linecap="round" stroke-linejoin="round" stroke-miterlimit="10" d="M66.115 42.944l5.444-5.444"/><circle transform="rotate(-45.001 76.18 32.88)" cx="76.181" cy="32.878" fill="none" stroke="#f7b26a" stroke-width="3" stroke-linecap="round" stroke-linejoin="round" stroke-miterlimit="10" r="5.783"/></g><g><path fill="none" stroke="#f7b26a" stroke-width="3" stroke-linecap="round" stroke-linejoin="round" stroke-miterlimit="10" d="M72.482 58.931h7.699"/><circle cx="86.717" cy="58.931" r="5.783" fill="none" stroke="#f7b26a" stroke-width="3" stroke-linecap="round" stroke-linejoin="round" stroke-miterlimit="10"/></g><g><path fill="none" stroke="#f7b26a" stroke-width="3" stroke-linecap="round" stroke-linejoin="round" stroke-miterlimit="10" d="M27.518 58.315h-7.699"/><circle cx="13.283" cy="58.315" r="5.783" fill="none" stroke="#f7b26a" stroke-width="3" stroke-linecap="round" stroke-linejoin="round" stroke-miterlimit="10"/></g><g><path fill="none" stroke="#f7b26a" stroke-width="3" stroke-linecap="round" stroke-linejoin="round" stroke-miterlimit="10" d="M34.321 42.508l-5.445-5.444"/><circle transform="rotate(-45.001 24.255 32.443)" cx="24.255" cy="32.443" fill="none" stroke="#f7b26a" stroke-width="3" stroke-linecap="round" stroke-linejoin="round" stroke-miterlimit="10" r="5.783"/></g><metadata xmlns:d="https://loading.io/stock/">
<d:name>idea</d:name>
<d:tags>idea,share,connection,brainstorm,personality,charisma,characteristic,choice,option,strategy</d:tags>
<d:license>by</d:license>
<d:slug>omh3v2</d:slug>
</metadata></svg>