<?xml version="1.0"?><svg xmlns="http://www.w3.org/2000/svg" viewBox="0 0 100 100"><path d="M78.475 48.748v-8.545c0-11.871-9.623-21.494-21.494-21.494H43.019c-11.871 0-21.494 9.623-21.494 21.494v8.545" fill="none" stroke="#000" stroke-width="3" stroke-linecap="round" stroke-linejoin="round" stroke-miterlimit="10"/><path d="M43.019 81.291c-11.871 0-21.494-9.623-21.494-21.494v-8.545" fill="none" stroke="#000" stroke-width="3" stroke-linecap="round" stroke-linejoin="round" stroke-miterlimit="10"/><path fill="none" stroke="#000" stroke-width="9" stroke-linecap="round" stroke-linejoin="round" stroke-miterlimit="10" d="M50 81.291h-6.981"/><path d="M21.525 65.121h0C15.16 65.121 10 59.961 10 53.595v-5.132c0-6.365 5.16-11.526 11.526-11.526h0v28.184z" fill="none" stroke="#000" stroke-width="3" stroke-linecap="round" stroke-linejoin="round" stroke-miterlimit="10"/><path d="M78.474 65.121h0C84.84 65.121 90 59.961 90 53.595v-5.132c0-6.365-5.16-11.526-11.526-11.526h0v28.184z" fill="none" stroke="#000" stroke-width="3" stroke-linecap="round" stroke-linejoin="round" stroke-miterlimit="10"/><metadata xmlns:d="https://loading.io/stock/">
<d:name>headset</d:name>
<d:tags>headset,customer service,support,helpdesk,contact,information,expertise,call center,operator</d:tags>
<d:license>by</d:license>
<d:slug>nl8smo</d:slug>
</metadata></svg>