<svg id="Capa_1" data-name="Capa 1" xmlns="http://www.w3.org/2000/svg" width="2242.03665" height="743.43694" viewBox="0 0 2242.03665 743.43694">
  <title>logohorizontal</title>
  <g>
    <g>
      <path d="M476.74817,265.51411l0,127.43577A21.24143,21.24143,0,0,0,497.989,414.1913l212.4148.00661a21.24144,21.24144,0,0,0,21.2421-21.24143l0-212.40237a21.24143,21.24143,0,0,0-21.24143-21.24144H328.0578a21.24144,21.24144,0,0,0-21.24143,21.24144l0,382.33285a21.24144,21.24144,0,0,0,21.24144,21.24143H625.43855A21.24143,21.24143,0,0,1,646.68,605.36981l0,42.47573A21.24144,21.24144,0,0,1,625.43886,669.087l-382.34667.005a21.24142,21.24142,0,0,1-21.24171-21.24143V95.58815a21.24144,21.24144,0,0,1,21.24136-21.24144l552.27843-.00182a21.24144,21.24144,0,0,1,21.2415,21.24144v382.3364A21.24144,21.24144,0,0,1,795.37,499.16417l-382.34659-.0053a21.24143,21.24143,0,0,1-21.24114-21.24143l0-212.40332a21.24144,21.24144,0,0,1,21.24144-21.24144h42.483A21.24143,21.24143,0,0,1,476.74817,265.51411Z"/>
      <rect x="667.13479" y="584.12447" width="86.53929" height="84.96001" rx="21.24143" ry="21.24143"/>
      <rect x="774.12889" y="584.12447" width="42.48293" height="84.96001" rx="21.24143" ry="21.24143"/>
      <rect x="519.23117" y="244.27268" width="127.44884" height="84.96001" rx="21.24143" ry="21.24143"/>
    </g>
    <g>
      <path d="M1105.56012,391.31522a5.0147,5.0147,0,0,1-5,5h-101.913a5.0147,5.0147,0,0,0-5,5v93.26939a5.0147,5.0147,0,0,1-5,5H949.94054a5.0147,5.0147,0,0,1-5-5V248.85233a5.0147,5.0147,0,0,1,5-5h150.61958a5.0147,5.0147,0,0,1,5,5Zm-53.70615-44.1935a5.0147,5.0147,0,0,0,5-5V298.04663a5.0147,5.0147,0,0,0-5-5H998.64709a5.0147,5.0147,0,0,0-5,5v44.07509a5.0147,5.0147,0,0,0,5,5Z"/>
      <path d="M1283.48533,243.85233a5.0147,5.0147,0,0,1,5,5V391.31522a5.0147,5.0147,0,0,1-5,5h-45.77074a5.0147,5.0147,0,0,0-5,5v93.26939a5.0147,5.0147,0,0,1-5,5H1189.008a5.0147,5.0147,0,0,1-5-5V401.31522a5.0147,5.0147,0,0,0-5-5h-46.14229a5.0147,5.0147,0,0,1-5-5V248.85233a5.0147,5.0147,0,0,1,5-5h38.70655a5.0147,5.0147,0,0,1,5,5v93.26939a5.0147,5.0147,0,0,0,5,5h53.20688a5.0147,5.0147,0,0,0,5-5V248.85233a5.0147,5.0147,0,0,1,5-5Z"/>
      <path d="M1315.791,293.04663a5.0147,5.0147,0,0,1-5-5v-39.1943a5.0147,5.0147,0,0,1,5-5h150.61958a5.0147,5.0147,0,0,1,5,5V377.79685a5.0147,5.0147,0,0,1-5,5h-101.913a5.0147,5.0147,0,0,0-5,5v57.59426a5.0147,5.0147,0,0,0,5,5h101.913a5.0147,5.0147,0,0,1,5,5v39.1935a5.0147,5.0147,0,0,1-5,5H1315.791a5.0147,5.0147,0,0,1-5-5V338.60254a5.0147,5.0147,0,0,1,5-5h101.91343a5.0147,5.0147,0,0,0,5-5V298.04663a5.0147,5.0147,0,0,0-5-5Z"/>
      <path d="M1649.33575,450.39111a5.0147,5.0147,0,0,1,5,5v39.1935a5.0147,5.0147,0,0,1-5,5H1498.71617a5.0147,5.0147,0,0,1-5-5V248.85233a5.0147,5.0147,0,0,1,5-5h38.70655a5.0147,5.0147,0,0,1,5,5V445.39111a5.0147,5.0147,0,0,0,5,5Z"/>
      <path d="M1837.26055,494.58461a5.0147,5.0147,0,0,1-5,5h-38.70614a5.0147,5.0147,0,0,1-5-5V401.31522a5.0147,5.0147,0,0,0-5-5h-53.20729a5.0147,5.0147,0,0,0-5,5v93.26939a5.0147,5.0147,0,0,1-5,5H1681.641a5.0147,5.0147,0,0,1-5-5V248.85233a5.0147,5.0147,0,0,1,5-5h150.61958a5.0147,5.0147,0,0,1,5,5Zm-53.70614-147.46289a5.0147,5.0147,0,0,0,5-5V298.04663a5.0147,5.0147,0,0,0-5-5h-53.20729a5.0147,5.0147,0,0,0-5,5v44.07509a5.0147,5.0147,0,0,0,5,5Z"/>
      <path d="M2020.00018,393.12363a29.30293,29.30293,0,0,1,.186,4.8124v96.64858a5.0147,5.0147,0,0,1-5,5H1864.56659a5.0147,5.0147,0,0,1-5-5V248.85233a5.0147,5.0147,0,0,1,5-5h150.61958a5.0147,5.0147,0,0,1,5,5v96.64938a29.29337,29.29337,0,0,1-.186,4.812,23.91666,23.91666,0,0,0-3.6728,3.39559l-14.21892,14.61358a5.12918,5.12918,0,0,0,.03107,7.13669l14.15679,14.29855A23.98516,23.98516,0,0,0,2020.00018,393.12363Zm-48.52016-95.077a5.0147,5.0147,0,0,0-5-5h-53.20729a5.0147,5.0147,0,0,0-5,5v44.07509a5.0147,5.0147,0,0,0,5,5H1966.48a5.0147,5.0147,0,0,0,5-5Zm0,103.26859a5.0147,5.0147,0,0,0-5-5h-53.20729a5.0147,5.0147,0,0,0-5,5v44.07589a5.0147,5.0147,0,0,0,5,5H1966.48a5.0147,5.0147,0,0,0,5-5Z"/>
    </g>
  </g>
</svg>
